<svg xmlns="http://www.w3.org/2000/svg" viewBox="0 0 24 24" width="24" height="24" aria-hidden="true" focusable="false"><defs><linearGradient id="sic-tall3-silver-flat" x1="0" y1="0" x2="0" y2="1"><stop offset="0" stop-color="#7bb8e0"/><stop offset="1" stop-color="#b9dcf2"/></linearGradient></defs><rect x="0" y="0" width="24" height="24" fill="url(#sic-tall3-silver-flat)"/><path d="M7.95 3.7L12 2.2L16.05 3.7V14.15C16.05 16.36 14.24 18.15 12 18.15C9.76 18.15 7.95 16.36 7.95 14.15Z" fill="#b3b9bf"/><g fill="none" stroke="#232a30" stroke-width="2" stroke-linecap="round" stroke-linejoin="round"><path d="M7.95 3.7L12 2.2L16.05 3.7"/><path d="M7.95 3.7V21.4M16.05 3.7V21.4"/><path d="M7.95 14.15C7.95 16.36 9.76 18.15 12 18.15C14.24 18.15 16.05 16.36 16.05 14.15"/><path d="M7.1 13.55H16.9"/><path d="M12 18.15V21.4"/></g></svg>
